<svg width="32" height="32" viewBox="0 0 32 32" fill="none" xmlns="http://www.w3.org/2000/svg">
<path d="M21.333 5.33301H23.9997C24.7069 5.33301 25.3852 5.61396 25.8853 6.11406C26.3854 6.61415 26.6663 7.29243 26.6663 7.99967V26.6663C26.6663 27.3736 26.3854 28.0519 25.8853 28.552C25.3852 29.0521 24.7069 29.333 23.9997 29.333H7.99967C7.29243 29.333 6.61415 29.0521 6.11406 28.552C5.61396 28.0519 5.33301 27.3736 5.33301 26.6663V7.99967C5.33301 7.29243 5.61396 6.61415 6.11406 6.11406C6.61415 5.61396 7.29243 5.33301 7.99967 5.33301H10.6663" stroke="#0A0A0A" stroke-width="2.66667" stroke-linecap="round" stroke-linejoin="round"/>
<path d="M20.0003 2.66699H12.0003C11.2639 2.66699 10.667 3.26395 10.667 4.00033V6.66699C10.667 7.40337 11.2639 8.00033 12.0003 8.00033H20.0003C20.7367 8.00033 21.3337 7.40337 21.3337 6.66699V4.00033C21.3337 3.26395 20.7367 2.66699 20.0003 2.66699Z" stroke="#0A0A0A" stroke-width="2.66667" stroke-linecap="round" stroke-linejoin="round"/>
<path d="M20 16L14.5 21.5L12 19" stroke="#0A0A0A" stroke-width="2" stroke-linecap="round" stroke-linejoin="round"/>
</svg>
