<svg width="20" height="20" viewBox="0 0 20 20" fill="none" xmlns="http://www.w3.org/2000/svg">
<path d="M18.1092 1.89082C17.699 1.48066 17.1426 1.25024 16.5625 1.25024C15.9824 1.25024 15.4261 1.48066 15.0159 1.89082L14.0517 2.85499L17.145 5.94832L18.1092 4.98415C18.5194 4.57393 18.7498 4.01758 18.7498 3.43749C18.7498 2.85739 18.5194 2.30104 18.1092 1.89082ZM16.2609 6.83249L13.1675 3.73915L6.16753 10.7392C5.65324 11.2532 5.27518 11.8873 5.06753 12.5842L4.40086 14.8217C4.36868 14.9296 4.36628 15.0443 4.39391 15.1535C4.42155 15.2627 4.47821 15.3625 4.55787 15.4421C4.63754 15.5218 4.73727 15.5785 4.84649 15.6061C4.95572 15.6337 5.07039 15.6313 5.17836 15.5992L7.41586 14.9325C8.11272 14.7248 8.74683 14.3468 9.26086 13.8325L16.2609 6.83249Z" fill="#808191"/>
<path d="M4.375 4.375C3.71196 4.375 3.07607 4.63839 2.60723 5.10723C2.13839 5.57607 1.875 6.21196 1.875 6.875V15.625C1.875 16.288 2.13839 16.9239 2.60723 17.3928C3.07607 17.8616 3.71196 18.125 4.375 18.125H13.125C13.788 18.125 14.4239 17.8616 14.8928 17.3928C15.3616 16.9239 15.625 16.288 15.625 15.625V11.25C15.625 11.0842 15.5592 10.9253 15.4419 10.8081C15.3247 10.6908 15.1658 10.625 15 10.625C14.8342 10.625 14.6753 10.6908 14.5581 10.8081C14.4408 10.9253 14.375 11.0842 14.375 11.25V15.625C14.375 15.9565 14.2433 16.2745 14.0089 16.5089C13.7745 16.7433 13.4565 16.875 13.125 16.875H4.375C4.04348 16.875 3.72554 16.7433 3.49112 16.5089C3.2567 16.2745 3.125 15.9565 3.125 15.625V6.875C3.125 6.54348 3.2567 6.22554 3.49112 5.99112C3.72554 5.7567 4.04348 5.625 4.375 5.625H8.75C8.91576 5.625 9.07473 5.55915 9.19194 5.44194C9.30915 5.32473 9.375 5.16576 9.375 5C9.375 4.83424 9.30915 4.67527 9.19194 4.55806C9.07473 4.44085 8.91576 4.375 8.75 4.375H4.375Z" fill="#808191"/>
</svg>
