<svg width="37" height="48" viewBox="0 0 37 48" fill="none" xmlns="http://www.w3.org/2000/svg">
<path d="M8.62973 44.1691L5.66504 22.8233C5.66504 22.8233 7.44385 25.1948 11.2979 25.343C15.152 25.4913 21.0961 19.2782 24.0461 20.4516L20.4885 44.1691H8.62973Z" fill="#A93F15"/>
<path d="M29.0723 16.7518L24.4775 46.992L24.3242 47.9998H4.63574L4.49121 46.9803L0.192383 16.741L0 15.3885H20.1201C20.3607 16.2587 20.7604 17.0596 21.2861 17.7596H2.73242L6.69434 45.6278H22.2861L26.0898 20.5916L28.0439 21.0672L28.5342 19.0506L26.4023 18.5321L26.5205 17.7596H24.3066C23.4137 17.2028 22.7091 16.3767 22.3076 15.3885H29.2803L29.0723 16.7518Z" fill="#0A0A0A"/>
<path d="M25.6762 1.63281L24.6439 10.5732C24.5598 11.3031 25.0814 11.9637 25.8109 12.0508C26.5442 12.1382 27.2092 11.6134 27.2943 10.8799L28.3295 1.94922L31.0131 2.26855L29.9809 11.1904C29.8963 11.9206 30.418 12.5819 31.1479 12.6689C31.8812 12.7564 32.5462 12.2316 32.6313 11.498L33.6635 2.58594L34.977 2.74121L36.2914 2.89844L34.9662 14.0049C34.5686 17.3378 31.5443 19.7179 28.2113 19.3203L27.0346 19.1797C23.7017 18.7821 21.3216 15.7577 21.7191 12.4248L23.0443 1.31836L25.6762 1.63281ZM35.1654 1.18848C35.9032 1.27645 36.4243 1.95387 36.3197 2.68945L36.2904 2.89746L33.6635 2.58496L33.6947 2.33594C33.7865 1.61452 34.4433 1.10241 35.1654 1.18848ZM29.8344 0.598632L29.8627 0.601562C30.5804 0.687143 31.0998 1.3291 31.0336 2.04883L31.0131 2.26855L28.3305 1.94922L28.351 1.77148C28.4351 1.03708 29.1004 0.511107 29.8344 0.598632ZM28.3305 1.94824L28.3295 1.94922L25.6762 1.63281L25.6771 1.63184L28.3305 1.94824ZM24.5307 0.00976525C25.2454 0.0950276 25.7617 0.734625 25.6938 1.45117L25.6762 1.63184L23.0443 1.31738L23.0521 1.21582C23.1145 0.467717 23.7852 -0.0791227 24.5307 0.00976525Z" fill="#0A0A0A"/>
<path d="M23.3047 46.8142L27.9 16.5743" stroke="#0A0A0A" stroke-width="2.37175"/>
<circle cx="12.1872" cy="29.9383" r="1.63058" fill="white"/>
<circle cx="16.0415" cy="35.5713" r="1.03764" fill="white"/>
<circle cx="14.4113" cy="40.4629" r="0.592938" fill="white"/>
</svg>
