<svg width="20" height="20" viewBox="0 0 20 20" fill="none" xmlns="http://www.w3.org/2000/svg">
<path d="M12.4722 6.41794L12.471 6.41673C12.2218 6.16801 12.1111 5.89904 12.1111 5.55555V2.22222C12.1111 1.87869 12.2219 1.60902 12.4716 1.35933C12.7201 1.11074 12.9893 1 13.3333 1H17.7778C18.1215 1 18.3912 1.11059 18.6406 1.35924C18.8894 1.60866 19 1.87837 19 2.22222V5.55555C19 5.89959 18.8893 6.16874 18.6407 6.41734C18.391 6.66703 18.1213 6.77778 17.7778 6.77778H13.3333C12.9898 6.77778 12.7209 6.66709 12.4722 6.41794ZM2.22222 19C1.87836 19 1.60864 18.8893 1.35921 18.6405C1.11057 18.3912 1 18.1215 1 17.7778V2.22222C1 1.87841 1.11061 1.60872 1.35933 1.35933C1.60872 1.11061 1.87841 1 2.22222 1H6.66667C7.01049 1 7.2802 1.11063 7.5296 1.35937C7.77829 1.60876 7.88889 1.87843 7.88889 2.22222V17.7778C7.88889 18.1216 7.77828 18.3913 7.52956 18.6407C7.28016 18.8894 7.01047 19 6.66667 19H2.22222ZM13.3333 19C12.9893 19 12.7201 18.8893 12.4716 18.6407C12.2219 18.391 12.1111 18.1213 12.1111 17.7778V12.2222C12.1111 11.8787 12.2219 11.609 12.4716 11.3593C12.7201 11.1107 12.9893 11 13.3333 11H17.7778C18.1215 11 18.3912 11.1106 18.6405 11.3592C18.8893 11.6086 19 11.8783 19 12.2222V17.7778C19 18.1216 18.8894 18.3913 18.6407 18.6407C18.3913 18.8894 18.1216 19 17.7778 19H13.3333Z" stroke="#808191" stroke-width="2"/>
</svg>
