<svg width="80" height="80" viewBox="0 0 80 80" fill="none" xmlns="http://www.w3.org/2000/svg">
<path d="M5 28.9004V57.5004C5 60.1526 6.05357 62.6961 7.92893 64.5715C9.8043 66.4468 12.3478 67.5004 15 67.5004H65C67.6522 67.5004 70.1957 66.4468 72.0711 64.5715C73.9464 62.6961 75 60.1526 75 57.5004V28.9004L45.24 47.2104C43.6641 48.1799 41.8502 48.6932 40 48.6932C38.1498 48.6932 36.3359 48.1799 34.76 47.2104L5 28.9004Z" fill="black"/>
<path d="M75 23.0267V22.5C75 19.8478 73.9464 17.3043 72.0711 15.4289C70.1957 13.5536 67.6522 12.5 65 12.5H15C12.3478 12.5 9.8043 13.5536 7.92893 15.4289C6.05357 17.3043 5 19.8478 5 22.5V23.0267L37.38 42.9533C38.1679 43.4381 39.0749 43.6947 40 43.6947C40.9251 43.6947 41.8321 43.4381 42.62 42.9533L75 23.0267Z" fill="black"/>
</svg>
