<svg width="60" height="60" viewBox="0 0 60 60" fill="none" xmlns="http://www.w3.org/2000/svg">
<g clip-path="url(#clip0_8_89)">
<circle cx="38.9998" cy="34.7999" r="21" fill="#E9E9E9"/>
<path d="M52.2 15.9163L31.575 4.62407C31.0928 4.35774 30.5509 4.21805 30 4.21805C29.4491 4.21805 28.9072 4.35774 28.425 4.62407L7.8 15.9163C7.28392 16.1986 6.85324 16.6146 6.55306 17.1205C6.25289 17.6264 6.09424 18.2038 6.09375 18.792V41.2077C6.09424 41.7959 6.25289 42.3733 6.55306 42.8792C6.85324 43.3851 7.28392 43.8011 7.8 44.0834L28.425 55.3756C28.9074 55.6415 29.4492 55.781 30 55.781C30.5508 55.781 31.0926 55.6415 31.575 55.3756L52.2 44.0834C52.7161 43.8011 53.1468 43.3851 53.4469 42.8792C53.7471 42.3733 53.9058 41.7959 53.9062 41.2077V18.792C53.9058 18.2038 53.7471 17.6264 53.4469 17.1205C53.1468 16.6146 52.7161 16.1986 52.2 15.9163ZM29.7656 7.08969C29.8346 7.05195 29.912 7.03216 29.9906 7.03216C30.0693 7.03216 30.1466 7.05195 30.2156 7.08969L49.807 17.8124L41.8523 22.1647L22.043 11.3225L29.7656 7.08969ZM28.5938 52.2655L9.14062 41.6178C9.06874 41.5763 9.00917 41.5165 8.96799 41.4444C8.92681 41.3724 8.90551 41.2907 8.90625 41.2077V20.3108L28.5938 31.092V52.2655ZM10.193 17.8124L19.1156 12.9256L38.9227 23.7678L30 28.6499L10.193 17.8124ZM51.0938 41.2077C51.0945 41.2907 51.0732 41.3724 51.032 41.4444C50.9908 41.5165 50.9313 41.5763 50.8594 41.6178L31.4062 52.2655V31.0874L39.8438 26.4678V35.6249C39.8438 35.9978 39.9919 36.3555 40.2556 36.6192C40.5194 36.8829 40.877 37.0311 41.25 37.0311C41.623 37.0311 41.9806 36.8829 42.2444 36.6192C42.5081 36.3555 42.6562 35.9978 42.6562 35.6249V24.9303L51.0938 20.3108V41.2077Z" fill="#0A0A0A"/>
</g>
<defs>
<clipPath id="clip0_8_89">
<rect width="60" height="60" fill="white" transform="translate(-0.000244141)"/>
</clipPath>
</defs>
</svg>
