<svg width="32" height="32" viewBox="0 0 32 32" fill="none" xmlns="http://www.w3.org/2000/svg">
<path d="M28.2809 21.1868C27.4326 23.1927 26.1059 24.9604 24.4167 26.3352C22.7275 27.71 20.7272 28.65 18.5908 29.0731C16.4543 29.4963 14.2468 29.3896 12.1611 28.7625C10.0754 28.1354 8.17503 27.0069 6.62622 25.4756C5.07741 23.9444 3.92728 22.0571 3.27638 19.9787C2.62547 17.9003 2.49361 15.6941 2.89233 13.5529C3.29104 11.4118 4.20819 9.40094 5.56359 7.69614C6.91899 5.99135 8.67137 4.64453 10.6675 3.77344" stroke="#0A0A0A" stroke-width="2.66667" stroke-linecap="round" stroke-linejoin="round"/>
<path d="M29.3333 16.0003C29.3333 14.2494 28.9885 12.5156 28.3184 10.8979C27.6483 9.2802 26.6662 7.81035 25.4281 6.57223C24.19 5.33412 22.7201 4.35199 21.1024 3.68193C19.4848 3.01187 17.751 2.66699 16 2.66699V16.0003H29.3333Z" stroke="#0A0A0A" stroke-width="2.66667" stroke-linecap="round" stroke-linejoin="round"/>
</svg>
