<svg width="61" height="80" viewBox="0 0 61 80" fill="none" xmlns="http://www.w3.org/2000/svg">
<path d="M14.3826 73.6156L9.44141 38.0393C9.44141 38.0393 12.4061 41.9917 18.8296 42.2388C25.2531 42.4858 35.1599 32.1306 40.0766 34.0863L34.1472 73.6156H14.3826Z" fill="#A93F15"/>
<path d="M48.4551 27.9204L40.7959 78.3208L40.541 79.9995H7.72656L7.48535 78.3013L0.320312 27.9019L0 25.647H33.5322C33.9331 27.0977 34.5992 28.4331 35.4756 29.6001H4.55469L11.1572 76.0474H37.1426L43.4834 34.3208L46.7402 35.1118L47.5557 31.7515L44.0049 30.8882L44.2012 29.6001H40.5049C39.0185 28.6718 37.847 27.2929 37.1787 25.647H48.7998L48.4551 27.9204Z" fill="white"/>
<path d="M42.794 2.72135L41.0723 17.6217C40.9317 18.8385 41.8023 19.9406 43.0186 20.0856C44.2406 20.2311 45.3485 19.3559 45.4903 18.1335L47.2168 3.24869L51.6885 3.78287L49.9668 18.651C49.8259 19.868 50.6966 20.9698 51.9131 21.1149C53.1351 21.2605 54.2429 20.3861 54.3848 19.1637L56.1065 4.31022L54.1612 4.07682L56.1055 4.30924H56.1065V4.31119L58.4424 4.58756L60.4864 4.8317L58.2774 23.3424C57.6147 28.8973 52.5744 32.8635 47.0196 32.2008L45.0576 31.9665C39.5027 31.3038 35.5366 26.2636 36.1993 20.7087L38.4073 2.19791L42.794 2.72135ZM58.6094 1.98111C59.839 2.12773 60.7074 3.25717 60.5332 4.48307L60.4834 4.82975L58.4424 4.58756L56.1065 4.30924L56.1592 3.8942C56.3121 2.69188 57.4059 1.83774 58.6094 1.98111ZM49.7237 0.998692L49.7715 1.00455C50.9677 1.14719 51.833 2.21614 51.7227 3.41568L51.6895 3.7819L54.1612 4.07682L51.6885 3.78287H51.6895L47.2178 3.24869L47.251 2.95377C47.3913 1.72976 48.5003 0.852817 49.7237 0.998692ZM47.2168 3.24869L42.794 2.72135L42.795 2.7194L47.2168 3.24869ZM40.8848 0.0162705C42.0759 0.15849 42.9356 1.22537 42.8223 2.41959L42.794 2.7194L38.4063 2.19596L38.4209 2.02701C38.5249 0.780191 39.6424 -0.131875 40.8848 0.0162705Z" fill="white"/>
<path d="M38.8408 78.0239L46.4996 27.624" stroke="white" stroke-width="3.95293"/>
<circle cx="20.3124" cy="49.8973" r="2.71764" fill="white"/>
<circle cx="26.7362" cy="59.2856" r="1.72941" fill="white"/>
<circle cx="24.0185" cy="67.4384" r="0.988233" fill="white"/>
</svg>
