<svg width="20" height="20" viewBox="0 0 20 20" fill="none" xmlns="http://www.w3.org/2000/svg">
<path d="M14.0256 14.75C13.817 14.5093 13.7127 14.2359 13.7127 13.93C13.7127 13.6248 13.817 13.3704 14.0256 13.1667L16.1309 11.1111H7.96586C7.64343 11.1111 7.37335 11.0044 7.15562 10.7911C6.93713 10.5785 6.82788 10.3148 6.82788 10C6.82788 9.68519 6.93713 9.42111 7.15562 9.20778C7.37335 8.99518 7.64343 8.88889 7.96586 8.88889H16.1309L14.0256 6.83333C13.798 6.61111 13.6842 6.34741 13.6842 6.04222C13.6842 5.7363 13.798 5.47222 14.0256 5.25C14.2342 5.02778 14.4952 4.91667 14.8085 4.91667C15.1211 4.91667 15.3817 5.01852 15.5903 5.22222L19.6871 9.22222C19.8008 9.33333 19.8816 9.4537 19.9294 9.58333C19.9765 9.71296 20 9.85185 20 10C20 10.1481 19.9765 10.287 19.9294 10.4167C19.8816 10.5463 19.8008 10.6667 19.6871 10.7778L15.5903 14.7778C15.3438 15.0185 15.0737 15.1248 14.7801 15.0967C14.4857 15.0693 14.2342 14.9537 14.0256 14.75ZM2.27596 20C1.65007 20 1.11408 19.7826 0.667994 19.3478C0.222665 18.9122 0 18.3889 0 17.7778V2.22222C0 1.61111 0.222665 1.08778 0.667994 0.652222C1.11408 0.217407 1.65007 0 2.27596 0H9.10384C9.42627 0 9.69673 0.106296 9.91522 0.318889C10.133 0.532222 10.2418 0.796296 10.2418 1.11111C10.2418 1.42593 10.133 1.68963 9.91522 1.90222C9.69673 2.11556 9.42627 2.22222 9.10384 2.22222H2.27596V17.7778H9.10384C9.42627 17.7778 9.69673 17.8844 9.91522 18.0978C10.133 18.3104 10.2418 18.5741 10.2418 18.8889C10.2418 19.2037 10.133 19.4674 9.91522 19.68C9.69673 19.8933 9.42627 20 9.10384 20H2.27596Z" fill="#808191"/>
</svg>
