<svg width="32" height="32" viewBox="0 0 32 32" fill="none" xmlns="http://www.w3.org/2000/svg">
<path d="M21.333 4H1.33301V21.3333H21.333V4Z" stroke="#0A0A0A" stroke-width="2.66667" stroke-linecap="round" stroke-linejoin="round"/>
<path d="M21.333 10.667H26.6663L30.6663 14.667V21.3337H21.333V10.667Z" stroke="#0A0A0A" stroke-width="2.66667" stroke-linecap="round" stroke-linejoin="round"/>
<path d="M7.33333 27.9997C9.17428 27.9997 10.6667 26.5073 10.6667 24.6663C10.6667 22.8254 9.17428 21.333 7.33333 21.333C5.49238 21.333 4 22.8254 4 24.6663C4 26.5073 5.49238 27.9997 7.33333 27.9997Z" stroke="#0A0A0A" stroke-width="2.66667" stroke-linecap="round" stroke-linejoin="round"/>
<path d="M24.6663 27.9997C26.5073 27.9997 27.9997 26.5073 27.9997 24.6663C27.9997 22.8254 26.5073 21.333 24.6663 21.333C22.8254 21.333 21.333 22.8254 21.333 24.6663C21.333 26.5073 22.8254 27.9997 24.6663 27.9997Z" stroke="#0A0A0A" stroke-width="2.66667" stroke-linecap="round" stroke-linejoin="round"/>
</svg>
