<svg width="60" height="60" viewBox="0 0 60 60" fill="none" xmlns="http://www.w3.org/2000/svg">
<path d="M22.5 30H31.875M22.5 37.5H31.875M22.5 45H31.875M39.375 46.875H45C46.4918 46.875 47.9226 46.2824 48.9775 45.2275C50.0324 44.1726 50.625 42.7418 50.625 41.25V15.27C50.625 12.4325 48.5125 10.025 45.685 9.79C44.75 9.71246 43.8141 9.64579 42.8775 9.59M42.8775 9.59C43.0434 10.1277 43.1252 10.6873 43.125 11.25C43.125 11.7473 42.9275 12.2242 42.5758 12.5758C42.2242 12.9275 41.7473 13.125 41.25 13.125H30C28.965 13.125 28.125 12.285 28.125 11.25C28.125 10.6725 28.2125 10.115 28.375 9.59M42.8775 9.59C42.17 7.295 40.03 5.625 37.5 5.625H33.75C32.5481 5.62528 31.3779 6.01036 30.4107 6.72385C29.4434 7.43734 28.7301 8.44175 28.375 9.59M28.375 9.59C27.435 9.6475 26.5 9.715 25.565 9.79C22.7375 10.025 20.625 12.4325 20.625 15.27V20.625M20.625 20.625H12.1875C10.635 20.625 9.375 21.885 9.375 23.4375V51.5625C9.375 53.115 10.635 54.375 12.1875 54.375H36.5625C38.115 54.375 39.375 53.115 39.375 51.5625V23.4375C39.375 21.885 38.115 20.625 36.5625 20.625H20.625ZM16.875 30H16.895V30.02H16.875V30ZM16.875 37.5H16.895V37.52H16.875V37.5ZM16.875 45H16.895V45.02H16.875V45Z" stroke="#0A0A0A" stroke-width="3.75" stroke-linecap="round" stroke-linejoin="round"/>
</svg>
