<svg width="32" height="32" viewBox="0 0 32 32" fill="none" xmlns="http://www.w3.org/2000/svg">
<path d="M18.6673 2.66699H8.00065C7.29341 2.66699 6.61513 2.94794 6.11503 3.44804C5.61494 3.94814 5.33398 4.62641 5.33398 5.33366V26.667C5.33398 27.3742 5.61494 28.0525 6.11503 28.5526C6.61513 29.0527 7.29341 29.3337 8.00065 29.3337H24.0006C24.7079 29.3337 25.3862 29.0527 25.8863 28.5526C26.3864 28.0525 26.6673 27.3742 26.6673 26.667V10.667L18.6673 2.66699Z" stroke="#0A0A0A" stroke-width="2.66667" stroke-linecap="round" stroke-linejoin="round"/>
<path d="M18.666 2.66699V10.667H26.666" stroke="#0A0A0A" stroke-width="2.66667" stroke-linecap="round" stroke-linejoin="round"/>
<path d="M21.3327 17.333H10.666" stroke="#0A0A0A" stroke-width="2.66667" stroke-linecap="round" stroke-linejoin="round"/>
<path d="M21.3327 22.667H10.666" stroke="#0A0A0A" stroke-width="2.66667" stroke-linecap="round" stroke-linejoin="round"/>
<path d="M13.3327 12H11.9993H10.666" stroke="#0A0A0A" stroke-width="2.66667" stroke-linecap="round" stroke-linejoin="round"/>
</svg>
