<svg width="60" height="60" viewBox="0 0 60 60" fill="none" xmlns="http://www.w3.org/2000/svg">
<g clip-path="url(#clip0_8_96)">
<circle cx="39" cy="34.7999" r="21" fill="#E9E9E9"/>
<path d="M15.0001 19.9999H25.0001" stroke="#0A0A0A" stroke-width="3.75" stroke-linecap="round" stroke-linejoin="round"/>
<path d="M52.0826 22.5H45.5776C41.1151 22.5 37.5001 25.8575 37.5001 30C37.5001 34.1425 41.1176 37.5 45.5751 37.5H52.0826C52.2926 37.5 52.3951 37.5 52.4826 37.495C53.8326 37.4125 54.9076 36.415 54.9951 35.1625C55.0001 35.0825 55.0001 34.985 55.0001 34.7925V25.2075C55.0001 25.015 55.0001 24.9175 54.9951 24.8375C54.9051 23.585 53.8326 22.5875 52.4826 22.505C52.3976 22.5 52.2926 22.5 52.0826 22.5Z" stroke="#0A0A0A" stroke-width="3.75"/>
<path d="M52.4127 22.4998C52.2177 17.8198 51.5927 14.9498 49.5702 12.9298C46.6427 9.99985 41.9277 9.99985 32.5002 9.99985H25.0002C15.5727 9.99985 10.8577 9.99985 7.93024 12.9298C5.00024 15.8573 5.00024 20.5723 5.00024 29.9998C5.00024 39.4273 5.00024 44.1423 7.93024 47.0698C10.8577 49.9998 15.5727 49.9998 25.0002 49.9998H32.5002C41.9277 49.9998 46.6427 49.9998 49.5702 47.0698C51.5927 45.0498 52.2202 42.1798 52.4127 37.4998" stroke="#0A0A0A" stroke-width="3.75"/>
<path d="M44.9768 29.9999H45.0018" stroke="#0A0A0A" stroke-width="5" stroke-linecap="round" stroke-linejoin="round"/>
</g>
<defs>
<clipPath id="clip0_8_96">
<rect width="60" height="60" fill="white"/>
</clipPath>
</defs>
</svg>
