<svg width="60" height="60" viewBox="0 0 60 60" fill="none" xmlns="http://www.w3.org/2000/svg">
<path d="M50.625 15.9375C50.625 21.6325 41.39 26.25 30 26.25C18.61 26.25 9.375 21.6325 9.375 15.9375M50.625 15.9375C50.625 10.2425 41.39 5.625 30 5.625C18.61 5.625 9.375 10.2425 9.375 15.9375M50.625 15.9375V44.0625C50.625 49.7575 41.39 54.375 30 54.375C18.61 54.375 9.375 49.7575 9.375 44.0625V15.9375M50.625 15.9375V25.3125M9.375 15.9375V25.3125M50.625 25.3125V34.6875C50.625 40.3825 41.39 45 30 45C18.61 45 9.375 40.3825 9.375 34.6875V25.3125M50.625 25.3125C50.625 31.0075 41.39 35.625 30 35.625C18.61 35.625 9.375 31.0075 9.375 25.3125" stroke="#0A0A0A" stroke-width="3.75" stroke-linecap="round" stroke-linejoin="round"/>
</svg>
