<svg width="60" height="60" viewBox="0 0 60 60" fill="none" xmlns="http://www.w3.org/2000/svg">
<path d="M5.625 46.875C18.964 46.8641 32.245 48.6305 45.1175 52.1275C46.935 52.6225 48.75 51.2725 48.75 49.3875V46.875M9.375 11.25V13.125C9.375 13.6223 9.17746 14.0992 8.82583 14.4508C8.47419 14.8025 7.99728 15 7.5 15H5.625M5.625 15V14.0625C5.625 12.51 6.885 11.25 8.4375 11.25H50.625M5.625 15V37.5M50.625 11.25V13.125C50.625 14.16 51.465 15 52.5 15H54.375M50.625 11.25H51.5625C53.115 11.25 54.375 12.51 54.375 14.0625V38.4375C54.375 39.99 53.115 41.25 51.5625 41.25H50.625M5.625 37.5V38.4375C5.625 39.1834 5.92132 39.8988 6.44876 40.4262C6.97621 40.9537 7.69158 41.25 8.4375 41.25H9.375M5.625 37.5H7.5C7.99728 37.5 8.47419 37.6975 8.82583 38.0492C9.17746 38.4008 9.375 38.8777 9.375 39.375V41.25M50.625 41.25V39.375C50.625 38.8777 50.8225 38.4008 51.1742 38.0492C51.5258 37.6975 52.0027 37.5 52.5 37.5H54.375M50.625 41.25H9.375M37.5 26.25C37.5 28.2391 36.7098 30.1468 35.3033 31.5533C33.8968 32.9598 31.9891 33.75 30 33.75C28.0109 33.75 26.1032 32.9598 24.6967 31.5533C23.2902 30.1468 22.5 28.2391 22.5 26.25C22.5 24.2609 23.2902 22.3532 24.6967 20.9467C26.1032 19.5402 28.0109 18.75 30 18.75C31.9891 18.75 33.8968 19.5402 35.3033 20.9467C36.7098 22.3532 37.5 24.2609 37.5 26.25ZM45 26.25H45.02V26.27H45V26.25ZM15 26.25H15.02V26.27H15V26.25Z" stroke="#0A0A0A" stroke-width="3.75" stroke-linecap="round" stroke-linejoin="round"/>
</svg>
