<svg width="20" height="20" viewBox="0 0 20 20" fill="none" xmlns="http://www.w3.org/2000/svg">
<path d="M9.56664 2.91581C9.60189 2.82983 9.66191 2.75629 9.73907 2.70452C9.81624 2.65276 9.90706 2.62512 9.99997 2.62512C10.0929 2.62512 10.1837 2.65276 10.2609 2.70452C10.338 2.75629 10.3981 2.82983 10.4333 2.91581L12.2041 7.17498C12.2373 7.25467 12.2918 7.32368 12.3616 7.3744C12.4315 7.42513 12.5139 7.4556 12.6 7.46248L17.1983 7.83081C17.6141 7.86414 17.7825 8.38331 17.4658 8.65414L13.9625 11.6558C13.897 11.7118 13.8482 11.7847 13.8215 11.8666C13.7947 11.9485 13.791 12.0361 13.8108 12.12L14.8816 16.6075C14.9032 16.6975 14.8975 16.7919 14.8654 16.8787C14.8333 16.9656 14.7762 17.0409 14.7013 17.0953C14.6264 17.1497 14.5371 17.1807 14.4446 17.1843C14.3521 17.188 14.2606 17.1641 14.1816 17.1158L10.2441 14.7116C10.1706 14.6667 10.0861 14.643 9.99997 14.643C9.91382 14.643 9.82933 14.6667 9.75581 14.7116L5.81831 17.1166C5.73935 17.165 5.64785 17.1888 5.55535 17.1852C5.46286 17.1815 5.37352 17.1505 5.29861 17.0962C5.22371 17.0418 5.16661 16.9664 5.13452 16.8796C5.10243 16.7927 5.09678 16.6983 5.11831 16.6083L6.18914 12.12C6.209 12.0361 6.20535 11.9485 6.17859 11.8666C6.15183 11.7847 6.103 11.7117 6.03747 11.6558L2.53414 8.65414C2.46359 8.594 2.41248 8.51428 2.38727 8.42507C2.36207 8.33586 2.3639 8.24118 2.39255 8.15302C2.42119 8.06485 2.47536 7.98717 2.54818 7.92981C2.62101 7.87245 2.70922 7.838 2.80164 7.83081L7.39997 7.46248C7.48601 7.4556 7.56849 7.42513 7.63833 7.3744C7.70817 7.32368 7.76266 7.25467 7.79581 7.17498L9.56664 2.91581Z" stroke="#808191" stroke-width="2" stroke-linecap="round" stroke-linejoin="round"/>
</svg>
