<svg width="28" height="28" viewBox="0 0 28 28" fill="none" xmlns="http://www.w3.org/2000/svg">
<g clip-path="url(#clip0_282_547)">
<path d="M14 17.5C15.933 17.5 17.5 15.933 17.5 14C17.5 12.067 15.933 10.5 14 10.5C12.067 10.5 10.5 12.067 10.5 14C10.5 15.933 12.067 17.5 14 17.5Z" stroke="black" stroke-width="2.33333" stroke-linecap="round" stroke-linejoin="round"/>
<path d="M22.6334 17.5003C22.4781 17.8522 22.4318 18.2426 22.5004 18.621C22.569 18.9995 22.7495 19.3487 23.0184 19.6237L23.0884 19.6937C23.3054 19.9104 23.4775 20.1677 23.5949 20.451C23.7123 20.7342 23.7727 21.0379 23.7727 21.3445C23.7727 21.6511 23.7123 21.9548 23.5949 22.238C23.4775 22.5213 23.3054 22.7786 23.0884 22.9953C22.8717 23.2123 22.6144 23.3844 22.3311 23.5018C22.0478 23.6192 21.7442 23.6797 21.4376 23.6797C21.1309 23.6797 20.8273 23.6192 20.5441 23.5018C20.2608 23.3844 20.0035 23.2123 19.7867 22.9953L19.7167 22.9253C19.4418 22.6564 19.0926 22.4759 18.7141 22.4073C18.3356 22.3387 17.9453 22.385 17.5934 22.5403C17.2483 22.6882 16.9541 22.9338 16.7468 23.2468C16.5395 23.5598 16.4282 23.9266 16.4267 24.302V24.5003C16.4267 25.1192 16.1809 25.7127 15.7433 26.1502C15.3057 26.5878 14.7123 26.8337 14.0934 26.8337C13.4746 26.8337 12.8811 26.5878 12.4435 26.1502C12.0059 25.7127 11.7601 25.1192 11.7601 24.5003V24.3953C11.751 24.0092 11.6261 23.6347 11.4013 23.3205C11.1766 23.0063 10.8626 22.767 10.5001 22.6337C10.1482 22.4784 9.75786 22.432 9.37939 22.5007C9.00093 22.5693 8.65171 22.7497 8.37675 23.0187L8.30675 23.0887C8.09004 23.3056 7.8327 23.4777 7.54944 23.5951C7.26618 23.7126 6.96255 23.773 6.65591 23.773C6.34928 23.773 6.04565 23.7126 5.76239 23.5951C5.47912 23.4777 5.22179 23.3056 5.00508 23.0887C4.78814 22.872 4.61603 22.6146 4.49861 22.3314C4.38119 22.0481 4.32075 21.7445 4.32075 21.4378C4.32075 21.1312 4.38119 20.8276 4.49861 20.5443C4.61603 20.261 4.78814 20.0037 5.00508 19.787L5.07508 19.717C5.34404 19.442 5.52446 19.0928 5.59309 18.7143C5.66171 18.3359 5.61538 17.9455 5.46008 17.5937C5.31219 17.2486 5.06663 16.9543 4.75362 16.747C4.44062 16.5397 4.07383 16.4285 3.69841 16.427H3.50008C2.88124 16.427 2.28775 16.1812 1.85017 15.7436C1.41258 15.306 1.16675 14.7125 1.16675 14.0937C1.16675 13.4748 1.41258 12.8813 1.85017 12.4437C2.28775 12.0062 2.88124 11.7603 3.50008 11.7603H3.60508C3.99124 11.7513 4.36575 11.6263 4.67993 11.4016C4.99411 11.1769 5.23342 10.8628 5.36675 10.5003C5.52205 10.1484 5.56838 9.7581 5.49975 9.37964C5.43113 9.00118 5.25071 8.65195 4.98175 8.37699L4.91175 8.30699C4.6948 8.09029 4.5227 7.83295 4.40528 7.54969C4.28785 7.26642 4.22741 6.96279 4.22741 6.65616C4.22741 6.34952 4.28785 6.04589 4.40528 5.76263C4.5227 5.47937 4.6948 5.22203 4.91175 5.00533C5.12845 4.78838 5.38579 4.61628 5.66905 4.49885C5.95232 4.38143 6.25595 4.32099 6.56258 4.32099C6.86922 4.32099 7.17285 4.38143 7.45611 4.49885C7.73937 4.61628 7.99671 4.78838 8.21341 5.00533L8.28341 5.07533C8.55837 5.34428 8.9076 5.52471 9.28606 5.59333C9.66452 5.66195 10.0549 5.61563 10.4067 5.46033H10.5001C10.8451 5.31244 11.1394 5.06687 11.3467 4.75387C11.554 4.44086 11.6653 4.07408 11.6667 3.69866V3.50033C11.6667 2.88149 11.9126 2.28799 12.3502 1.85041C12.7878 1.41282 13.3812 1.16699 14.0001 1.16699C14.6189 1.16699 15.2124 1.41282 15.65 1.85041C16.0876 2.28799 16.3334 2.88149 16.3334 3.50033V3.60533C16.3349 3.98074 16.4462 4.34753 16.6534 4.66054C16.8607 4.97354 17.155 5.2191 17.5001 5.36699C17.852 5.52229 18.2423 5.56862 18.6208 5.5C18.9992 5.43138 19.3485 5.25095 19.6234 4.98199L19.6934 4.91199C19.9101 4.69505 20.1675 4.52294 20.4507 4.40552C20.734 4.2881 21.0376 4.22766 21.3442 4.22766C21.6509 4.22766 21.9545 4.2881 22.2378 4.40552C22.521 4.52294 22.7784 4.69505 22.9951 4.91199C23.212 5.1287 23.3841 5.38604 23.5016 5.6693C23.619 5.95256 23.6794 6.25619 23.6794 6.56283C23.6794 6.86946 23.619 7.17309 23.5016 7.45635C23.3841 7.73961 23.212 7.99695 22.9951 8.21366L22.9251 8.28366C22.6561 8.55862 22.4757 8.90784 22.4071 9.2863C22.3385 9.66477 22.3848 10.0551 22.5401 10.407V10.5003C22.688 10.8454 22.9335 11.1397 23.2465 11.347C23.5595 11.5543 23.9263 11.6655 24.3017 11.667H24.5001C25.1189 11.667 25.7124 11.9128 26.15 12.3504C26.5876 12.788 26.8334 13.3815 26.8334 14.0003C26.8334 14.6192 26.5876 15.2127 26.15 15.6502C25.7124 16.0878 25.1189 16.3337 24.5001 16.3337H24.3951C24.0197 16.3352 23.6529 16.4464 23.3399 16.6537C23.0269 16.861 22.7813 17.1553 22.6334 17.5003Z" stroke="black" stroke-width="2.33333" stroke-linecap="round" stroke-linejoin="round"/>
</g>
<defs>
<clipPath id="clip0_282_547">
<rect width="28" height="28" fill="white"/>
</clipPath>
</defs>
</svg>
