<svg width="28" height="28" viewBox="0 0 28 28" fill="none" xmlns="http://www.w3.org/2000/svg">
<path d="M19.8337 20.9999C20.4525 20.9999 21.046 21.2458 21.4836 21.6833C21.9212 22.1209 22.167 22.7144 22.167 23.3333C22.167 23.9521 21.9212 24.5456 21.4836 24.9832C21.046 25.4208 20.4525 25.6666 19.8337 25.6666C19.2148 25.6666 18.6213 25.4208 18.1837 24.9832C17.7462 24.5456 17.5003 23.9521 17.5003 23.3333C17.5003 22.0383 18.5387 20.9999 19.8337 20.9999ZM1.16699 2.33325H4.98199L6.07866 4.66659H23.3337C23.6431 4.66659 23.9398 4.7895 24.1586 5.00829C24.3774 5.22709 24.5003 5.52383 24.5003 5.83325C24.5003 6.03159 24.442 6.22992 24.3603 6.41659L20.1837 13.9649C19.787 14.6766 19.017 15.1666 18.142 15.1666H9.45033L8.40033 17.0683L8.36533 17.2083C8.36533 17.2856 8.39605 17.3598 8.45075 17.4145C8.50545 17.4692 8.57964 17.4999 8.65699 17.4999H22.167V19.8333H8.16699C7.54815 19.8333 6.95466 19.5874 6.51708 19.1498C6.07949 18.7122 5.83366 18.1188 5.83366 17.4999C5.83366 17.0916 5.93866 16.7066 6.11366 16.3799L7.70033 13.5216L3.50033 4.66659H1.16699V2.33325ZM8.16699 20.9999C8.78583 20.9999 9.37932 21.2458 9.81691 21.6833C10.2545 22.1209 10.5003 22.7144 10.5003 23.3333C10.5003 23.9521 10.2545 24.5456 9.81691 24.9832C9.37932 25.4208 8.78583 25.6666 8.16699 25.6666C7.54815 25.6666 6.95466 25.4208 6.51708 24.9832C6.07949 24.5456 5.83366 23.9521 5.83366 23.3333C5.83366 22.0383 6.87199 20.9999 8.16699 20.9999ZM18.667 12.8333L21.9103 6.99992H7.16366L9.91699 12.8333H18.667Z" fill="#0A0A0A"/>
</svg>
