<svg width="20" height="20" viewBox="0 0 20 20" fill="none" xmlns="http://www.w3.org/2000/svg">
<path fill-rule="evenodd" clip-rule="evenodd" d="M12.5 3.125C12.5 2.95924 12.5658 2.80027 12.6831 2.68306C12.8003 2.56585 12.9592 2.5 13.125 2.5H16.875C17.0408 2.5 17.1997 2.56585 17.3169 2.68306C17.4342 2.80027 17.5 2.95924 17.5 3.125V6.875C17.5 7.04076 17.4342 7.19973 17.3169 7.31694C17.1997 7.43415 17.0408 7.5 16.875 7.5C16.7092 7.5 16.5503 7.43415 16.4331 7.31694C16.3158 7.19973 16.25 7.04076 16.25 6.875V4.63333L12.9417 7.94167C12.8844 8.00307 12.8154 8.05232 12.7388 8.08648C12.6621 8.12064 12.5794 8.13901 12.4954 8.14049C12.4115 8.14197 12.3282 8.12654 12.2503 8.0951C12.1725 8.06367 12.1018 8.01688 12.0425 7.95753C11.9831 7.89818 11.9363 7.82749 11.9049 7.74966C11.8735 7.67184 11.858 7.58848 11.8595 7.50456C11.861 7.42065 11.8794 7.33788 11.9135 7.26122C11.9477 7.18455 11.9969 7.11555 12.0583 7.05833L15.3667 3.75H13.125C12.9592 3.75 12.8003 3.68415 12.6831 3.56694C12.5658 3.44973 12.5 3.29076 12.5 3.125ZM2.5 3.125C2.5 2.95924 2.56585 2.80027 2.68306 2.68306C2.80027 2.56585 2.95924 2.5 3.125 2.5H6.875C7.04076 2.5 7.19973 2.56585 7.31694 2.68306C7.43415 2.80027 7.5 2.95924 7.5 3.125C7.5 3.29076 7.43415 3.44973 7.31694 3.56694C7.19973 3.68415 7.04076 3.75 6.875 3.75H4.63333L7.94167 7.05833C8.05207 7.17681 8.11217 7.33352 8.10931 7.49543C8.10646 7.65735 8.04086 7.81184 7.92635 7.92635C7.81184 8.04086 7.65735 8.10646 7.49543 8.10931C7.33352 8.11217 7.17681 8.05207 7.05833 7.94167L3.75 4.63333V6.875C3.75 7.04076 3.68415 7.19973 3.56694 7.31694C3.44973 7.43415 3.29076 7.5 3.125 7.5C2.95924 7.5 2.80027 7.43415 2.68306 7.31694C2.56585 7.19973 2.5 7.04076 2.5 6.875V3.125ZM12.0583 12.9417C11.9969 12.8844 11.9477 12.8154 11.9135 12.7388C11.8794 12.6621 11.861 12.5794 11.8595 12.4954C11.858 12.4115 11.8735 12.3282 11.9049 12.2503C11.9363 12.1725 11.9831 12.1018 12.0425 12.0425C12.1018 11.9831 12.1725 11.9363 12.2503 11.9049C12.3282 11.8735 12.4115 11.858 12.4954 11.8595C12.5794 11.861 12.6621 11.8794 12.7388 11.9135C12.8154 11.9477 12.8844 11.9969 12.9417 12.0583L16.25 15.3667V13.125C16.25 12.9592 16.3158 12.8003 16.4331 12.6831C16.5503 12.5658 16.7092 12.5 16.875 12.5C17.0408 12.5 17.1997 12.5658 17.3169 12.6831C17.4342 12.8003 17.5 12.9592 17.5 13.125V16.875C17.5 17.0408 17.4342 17.1997 17.3169 17.3169C17.1997 17.4342 17.0408 17.5 16.875 17.5H13.125C12.9592 17.5 12.8003 17.4342 12.6831 17.3169C12.5658 17.1997 12.5 17.0408 12.5 16.875C12.5 16.7092 12.5658 16.5503 12.6831 16.4331C12.8003 16.3158 12.9592 16.25 13.125 16.25H15.3667L12.0583 12.9417ZM7.94167 12.0583C8.05871 12.1755 8.12445 12.3344 8.12445 12.5C8.12445 12.6656 8.05871 12.8245 7.94167 12.9417L4.63333 16.25H6.875C7.04076 16.25 7.19973 16.3158 7.31694 16.4331C7.43415 16.5503 7.5 16.7092 7.5 16.875C7.5 17.0408 7.43415 17.1997 7.31694 17.3169C7.19973 17.4342 7.04076 17.5 6.875 17.5H3.125C2.95924 17.5 2.80027 17.4342 2.68306 17.3169C2.56585 17.1997 2.5 17.0408 2.5 16.875V13.125C2.5 12.9592 2.56585 12.8003 2.68306 12.6831C2.80027 12.5658 2.95924 12.5 3.125 12.5C3.29076 12.5 3.44973 12.5658 3.56694 12.6831C3.68415 12.8003 3.75 12.9592 3.75 13.125V15.3667L7.05833 12.0583C7.17552 11.9413 7.33437 11.8755 7.5 11.8755C7.66563 11.8755 7.82448 11.9413 7.94167 12.0583Z" fill="#808191"/>
</svg>
