<svg width="60" height="60" viewBox="0 0 60 60" fill="none" xmlns="http://www.w3.org/2000/svg">
<g clip-path="url(#clip0_8_107)">
<circle cx="38.9999" cy="34.7999" r="21" fill="#E9E9E9"/>
<path d="M10.0001 37.4999C10.0001 36.1738 10.5269 34.902 11.4646 33.9643C12.4023 33.0267 13.674 32.4999 15.0001 32.4999H17.5001C18.8262 32.4999 20.098 33.0267 21.0357 33.9643C21.9733 34.902 22.5001 36.1738 22.5001 37.4999V44.9999C22.5001 46.326 21.9733 47.5977 21.0357 48.5354C20.098 49.4731 18.8262 49.9999 17.5001 49.9999H15.0001C13.674 49.9999 12.4023 49.4731 11.4646 48.5354C10.5269 47.5977 10.0001 46.326 10.0001 44.9999V37.4999ZM37.5001 37.4999C37.5001 36.1738 38.0269 34.902 38.9646 33.9643C39.9023 33.0267 41.174 32.4999 42.5001 32.4999H45.0001C46.3262 32.4999 47.598 33.0267 48.5357 33.9643C49.4733 34.902 50.0001 36.1738 50.0001 37.4999V44.9999C50.0001 46.326 49.4733 47.5977 48.5357 48.5354C47.598 49.4731 46.3262 49.9999 45.0001 49.9999H42.5001C41.174 49.9999 39.9023 49.4731 38.9646 48.5354C38.0269 47.5977 37.5001 46.326 37.5001 44.9999V37.4999Z" stroke="#0A0A0A" stroke-width="3.75" stroke-linecap="round" stroke-linejoin="round"/>
<path d="M10.0001 37.4998V29.9998C10.0001 24.6955 12.1073 19.6084 15.858 15.8577C19.6087 12.107 24.6958 9.99985 30.0001 9.99985C35.3045 9.99985 40.3915 12.107 44.1423 15.8577C47.893 19.6084 50.0001 24.6955 50.0001 29.9998V37.4998" stroke="#0A0A0A" stroke-width="3.75" stroke-linecap="round" stroke-linejoin="round"/>
</g>
<defs>
<clipPath id="clip0_8_107">
<rect width="60" height="60" fill="white"/>
</clipPath>
</defs>
</svg>
