<svg width="60" height="60" viewBox="0 0 60 60" fill="none" xmlns="http://www.w3.org/2000/svg">
<path d="M37.4999 47.82C39.6324 48.4391 41.8419 48.7523 44.0624 48.75C47.6334 48.7552 51.158 47.9409 54.3649 46.37C54.4597 44.1293 53.8215 41.9187 52.5469 40.0733C51.2723 38.228 49.4309 36.8484 47.3017 36.1438C45.1725 35.4391 42.8717 35.4478 40.7478 36.1685C38.624 36.8892 36.7931 38.2826 35.5324 40.1375M37.4999 47.82V47.8125C37.4999 45.03 36.7849 42.4125 35.5324 40.1375M37.4999 47.82V48.085C32.6886 50.9827 27.1765 52.5095 21.5599 52.5C15.7324 52.5 10.2799 50.8875 5.62494 48.085L5.62244 47.8125C5.62052 44.2737 6.79647 40.8348 8.9649 38.0382C11.1333 35.2415 14.1709 33.2461 17.5987 32.3665C21.0264 31.4869 24.6495 31.7732 27.8966 33.1802C31.1437 34.5873 33.8302 37.035 35.5324 40.1375M29.9999 15.9375C29.9999 18.1753 29.111 20.3214 27.5287 21.9037C25.9463 23.4861 23.8002 24.375 21.5624 24.375C19.3247 24.375 17.1786 23.4861 15.5962 21.9037C14.0139 20.3214 13.1249 18.1753 13.1249 15.9375C13.1249 13.6997 14.0139 11.5536 15.5962 9.97129C17.1786 8.38895 19.3247 7.5 21.5624 7.5C23.8002 7.5 25.9463 8.38895 27.5287 9.97129C29.111 11.5536 29.9999 13.6997 29.9999 15.9375ZM50.6249 21.5625C50.6249 23.303 49.9335 24.9722 48.7028 26.2029C47.4721 27.4336 45.8029 28.125 44.0624 28.125C42.322 28.125 40.6528 27.4336 39.422 26.2029C38.1913 24.9722 37.4999 23.303 37.4999 21.5625C37.4999 19.822 38.1913 18.1528 39.422 16.9221C40.6528 15.6914 42.322 15 44.0624 15C45.8029 15 47.4721 15.6914 48.7028 16.9221C49.9335 18.1528 50.6249 19.822 50.6249 21.5625Z" stroke="#0A0A0A" stroke-width="3.75" stroke-linecap="round" stroke-linejoin="round"/>
</svg>
