<svg width="20" height="20" viewBox="0 0 20 20" fill="none" xmlns="http://www.w3.org/2000/svg">
<path d="M12.5001 15.94C13.2109 16.1464 13.9474 16.2508 14.6876 16.25C15.8779 16.2517 17.0528 15.9803 18.1218 15.4567C18.1534 14.7098 17.9406 13.9729 17.5158 13.3578C17.0909 12.7427 16.4771 12.2828 15.7674 12.0479C15.0576 11.813 14.2907 11.8159 13.5827 12.0562C12.8748 12.2964 12.2645 12.7609 11.8443 13.3792M12.5001 15.94V15.9375C12.5001 15.01 12.2618 14.1375 11.8443 13.3792M12.5001 15.94V16.0283C10.8963 16.9942 9.05894 17.5032 7.18677 17.5C5.24427 17.5 3.42677 16.9625 1.8751 16.0283L1.87427 15.9375C1.87363 14.7579 2.26561 13.6116 2.98842 12.6794C3.71123 11.7472 4.72375 11.082 5.86634 10.7888C7.00894 10.4956 8.21662 10.5911 9.29899 11.0601C10.3814 11.5291 11.2768 12.345 11.8443 13.3792M10.0001 5.3125C10.0001 6.05842 9.70379 6.77379 9.17634 7.30124C8.64889 7.82868 7.93352 8.125 7.1876 8.125C6.44168 8.125 5.72631 7.82868 5.19886 7.30124C4.67142 6.77379 4.3751 6.05842 4.3751 5.3125C4.3751 4.56658 4.67142 3.85121 5.19886 3.32376C5.72631 2.79632 6.44168 2.5 7.1876 2.5C7.93352 2.5 8.64889 2.79632 9.17634 3.32376C9.70379 3.85121 10.0001 4.56658 10.0001 5.3125ZM16.8751 7.1875C16.8751 7.76766 16.6446 8.32406 16.2344 8.7343C15.8242 9.14453 15.2678 9.375 14.6876 9.375C14.1074 9.375 13.551 9.14453 13.1408 8.7343C12.7306 8.32406 12.5001 7.76766 12.5001 7.1875C12.5001 6.60734 12.7306 6.05094 13.1408 5.6407C13.551 5.23047 14.1074 5 14.6876 5C15.2678 5 15.8242 5.23047 16.2344 5.6407C16.6446 6.05094 16.8751 6.60734 16.8751 7.1875Z" stroke="#808191" stroke-width="2" stroke-linecap="round" stroke-linejoin="round"/>
</svg>
